<?xml version="1.0" encoding="UTF-8" standalone="no"?>
<svg
   xmlns:dc="http://purl.org/dc/elements/1.1/"
   xmlns:cc="http://creativecommons.org/ns#"
   xmlns:rdf="http://www.w3.org/1999/02/22-rdf-syntax-ns#"
   xmlns:svg="http://www.w3.org/2000/svg"
   xmlns="http://www.w3.org/2000/svg"
   version="1.1"
   id="svg4155"
   viewBox="-25 -25 1050 1050"
   height="1000"
   width="1000">
  <metadata
     id="metadata4169">
    <rdf:RDF>
      <cc:Work
         rdf:about="">
        <dc:format>image/svg+xml</dc:format>
        <dc:type
           rdf:resource="http://purl.org/dc/dcmitype/StillImage" />
        <dc:title></dc:title>
      </cc:Work>
    </rdf:RDF>
  </metadata>
  <defs
     id="defs4167" />
  <path
     style="color:#000000;font-style:normal;font-variant:normal;font-weight:normal;font-stretch:normal;font-size:medium;line-height:normal;font-family:sans-serif;text-indent:0;text-align:start;text-decoration:none;text-decoration-line:none;text-decoration-style:solid;text-decoration-color:#000000;letter-spacing:normal;word-spacing:normal;text-transform:none;direction:ltr;block-progression:tb;writing-mode:lr-tb;baseline-shift:baseline;text-anchor:start;white-space:normal;clip-rule:nonzero;display:inline;overflow:visible;visibility:visible;opacity:1;isolation:auto;mix-blend-mode:normal;color-interpolation:sRGB;color-interpolation-filters:linearRGB;solid-color:#000000;solid-opacity:1;fill:#ffffff;fill-opacity:1;fill-rule:nonzero;stroke:none;stroke-width:50;stroke-linecap:butt;stroke-linejoin:miter;stroke-miterlimit:4;stroke-dasharray:none;stroke-dashoffset:0;stroke-opacity:1;color-rendering:auto;image-rendering:auto;shape-rendering:auto;text-rendering:auto;enable-background:accumulate"
     d="M 500 0 C 367.4009 0 240.20899 52.685545 146.44727 146.44727 C 52.685545 240.20899 0 367.4009 0 500 C 0 632.5991 52.685545 759.79101 146.44727 853.55273 C 240.20899 947.31446 367.4009 1000 500 1000 C 632.5991 1000 759.79101 947.31446 853.55273 853.55273 C 947.31446 759.79101 1000 632.5991 1000 500 C 1000 367.4009 947.31446 240.20899 853.55273 146.44727 C 759.79101 52.685545 632.5991 0 500 0 z M 476.19141 48.251953 L 476.19141 162.74023 C 400.8425 168.00606 332.2265 198.06399 278.46484 244.79297 L 197.40234 163.73047 C 274.36802 94.464451 372.79003 53.696429 476.19141 48.251953 z M 523.80859 48.251953 C 627.20997 53.696429 725.63198 94.464451 802.59766 163.73047 L 721.53516 244.79297 C 667.7735 198.06399 599.1575 168.00606 523.80859 162.74023 L 523.80859 48.251953 z M 163.73047 197.40234 L 244.79297 278.46484 C 198.06399 332.2265 168.00606 400.8425 162.74023 476.19141 L 48.251953 476.19141 C 53.696429 372.79003 94.464451 274.36802 163.73047 197.40234 z M 836.26953 197.40234 C 905.53555 274.36802 946.30357 372.79003 951.74805 476.19141 L 837.25977 476.19141 C 831.99394 400.8425 801.93601 332.2265 755.20703 278.46484 L 836.26953 197.40234 z M 500 209.52344 C 571.76132 209.52344 637.33887 235.41487 687.96289 278.36523 L 609.90039 356.42773 C 579.39499 333.00586 541.27664 319.04688 500 319.04688 C 458.72336 319.04688 420.60501 333.00586 390.09961 356.42773 L 312.03711 278.36523 C 362.66113 235.41487 428.23868 209.52344 500 209.52344 z M 278.36523 312.03711 L 356.42773 390.09961 C 333.00586 420.60501 319.04688 458.72336 319.04688 500 C 319.04688 541.27664 333.00586 579.39499 356.42773 609.90039 L 278.36523 687.96289 C 235.41487 637.33887 209.52344 571.76132 209.52344 500 C 209.52344 428.23868 235.41487 362.66113 278.36523 312.03711 z M 721.63477 312.03711 C 764.58513 362.66113 790.47656 428.23868 790.47656 500 C 790.47656 571.76132 764.58513 637.33887 721.63477 687.96289 L 643.57227 609.90039 C 666.99414 579.39499 680.95312 541.27664 680.95312 500 C 680.95312 458.72336 666.99414 420.60501 643.57227 390.09961 L 721.63477 312.03711 z M 500 366.66602 C 573.91998 366.66602 633.33398 426.08002 633.33398 500 C 633.33398 573.91998 573.91998 633.33398 500 633.33398 C 426.08002 633.33398 366.66602 573.91998 366.66602 500 C 366.66602 426.08002 426.08002 366.66602 500 366.66602 z M 48.251953 523.80859 L 162.74023 523.80859 C 168.00606 599.1575 198.06399 667.7735 244.79297 721.53516 L 163.73047 802.59766 C 94.464451 725.63198 53.696429 627.20997 48.251953 523.80859 z M 837.25977 523.80859 L 951.74805 523.80859 C 946.30357 627.20997 905.53555 725.63198 836.26953 802.59766 L 755.20703 721.53516 C 801.93601 667.7735 831.99394 599.1575 837.25977 523.80859 z M 390.09961 643.57227 C 420.60501 666.99414 458.72336 680.95312 500 680.95312 C 541.27664 680.95312 579.39499 666.99414 609.90039 643.57227 L 687.96289 721.63477 C 637.33887 764.58513 571.76132 790.47656 500 790.47656 C 428.23868 790.47656 362.66113 764.58513 312.03711 721.63477 L 390.09961 643.57227 z M 278.46484 755.20703 C 332.2265 801.93601 400.8425 831.99394 476.19141 837.25977 L 476.19141 951.74805 C 372.79003 946.30357 274.36802 905.53555 197.40234 836.26953 L 278.46484 755.20703 z M 721.53516 755.20703 L 802.59766 836.26953 C 725.63198 905.53555 627.20997 946.30357 523.80859 951.74805 L 523.80859 837.25977 C 599.1575 831.99394 667.7735 801.93601 721.53516 755.20703 z "
     transform="matrix(1.05,0,0,1.05,-25,-25)"
     id="path4191" />
  <path
     id="path4188"
     transform="matrix(1.05,0,0,1.05,-25,-25)"
     d="M 476.19141 48.251953 C 372.79003 53.696429 274.36802 94.46445 197.40234 163.73047 L 278.46484 244.79297 C 332.2265 198.06399 400.8425 168.00606 476.19141 162.74023 L 476.19141 48.251953 z M 523.80859 48.251953 L 523.80859 162.74023 C 599.1575 168.00606 667.7735 198.06399 721.53516 244.79297 L 802.59766 163.73047 C 725.63198 94.46445 627.20997 53.696429 523.80859 48.251953 z M 163.73047 197.40234 C 94.46445 274.36802 53.696429 372.79003 48.251953 476.19141 L 162.74023 476.19141 C 168.00606 400.8425 198.06399 332.2265 244.79297 278.46484 L 163.73047 197.40234 z M 836.26953 197.40234 L 755.20703 278.46484 C 801.93601 332.2265 831.99394 400.8425 837.25977 476.19141 L 951.74805 476.19141 C 946.30357 372.79003 905.53555 274.36802 836.26953 197.40234 z M 500 209.52344 C 428.23868 209.52344 362.66113 235.41487 312.03711 278.36523 L 390.09961 356.42773 C 420.60501 333.00586 458.72336 319.04688 500 319.04688 C 541.27664 319.04688 579.39499 333.00586 609.90039 356.42773 L 687.96289 278.36523 C 637.33887 235.41487 571.76132 209.52344 500 209.52344 z M 278.36523 312.03711 C 235.41487 362.66113 209.52344 428.23868 209.52344 500 C 209.52344 571.76132 235.41487 637.33887 278.36523 687.96289 L 356.42773 609.90039 C 333.00586 579.39499 319.04688 541.27664 319.04688 500 C 319.04688 458.72336 333.00586 420.60501 356.42773 390.09961 L 278.36523 312.03711 z M 721.63477 312.03711 L 643.57227 390.09961 C 666.99414 420.60501 680.95312 458.72336 680.95312 500 C 680.95312 541.27664 666.99414 579.39499 643.57227 609.90039 L 721.63477 687.96289 C 764.58513 637.33887 790.47656 571.76132 790.47656 500 C 790.47656 428.23868 764.58513 362.66113 721.63477 312.03711 z M 500 366.66602 C 426.08002 366.66602 366.66602 426.08002 366.66602 500 C 366.66602 573.91998 426.08002 633.33398 500 633.33398 C 573.91998 633.33398 633.33398 573.91998 633.33398 500 C 633.33398 426.08002 573.91998 366.66602 500 366.66602 z M 48.251953 523.80859 C 53.696429 627.20997 94.46445 725.63198 163.73047 802.59766 L 244.79297 721.53516 C 198.06399 667.7735 168.00606 599.1575 162.74023 523.80859 L 48.251953 523.80859 z M 837.25977 523.80859 C 831.99394 599.1575 801.93601 667.7735 755.20703 721.53516 L 836.26953 802.59766 C 905.53555 725.63198 946.30357 627.20997 951.74805 523.80859 L 837.25977 523.80859 z M 390.09961 643.57227 L 312.03711 721.63477 C 362.66113 764.58513 428.23868 790.47656 500 790.47656 C 571.76132 790.47656 637.33887 764.58513 687.96289 721.63477 L 609.90039 643.57227 C 579.39499 666.99414 541.27664 680.95312 500 680.95312 C 458.72336 680.95312 420.60501 666.99414 390.09961 643.57227 z M 278.46484 755.20703 L 197.40234 836.26953 C 274.36802 905.53555 372.79003 946.30357 476.19141 951.74805 L 476.19141 837.25977 C 400.8425 831.99394 332.2265 801.93601 278.46484 755.20703 z M 721.53516 755.20703 C 667.7735 801.93601 599.1575 831.99394 523.80859 837.25977 L 523.80859 951.74805 C 627.20997 946.30357 725.63198 905.53555 802.59766 836.26953 L 721.53516 755.20703 z "
     style="opacity:1;fill:#000000;fill-opacity:1;stroke:none;stroke-width:52.5;stroke-linecap:round;stroke-linejoin:round;stroke-miterlimit:4;stroke-dasharray:none;stroke-dashoffset:0;stroke-opacity:1" />
</svg>
